# xmcd
#
# Track frame offsets:
#	150
#	3773
#	16603
#	39666
#	52110
#	69350
#	80947
#	99585
#	117121
#
# Disc length: 1807 seconds
#
# Revision: 1
# Processed by: cddbd v1.5.2PL0 Copyright (c) Steve Scherf et al.
# Submitted via: audiograbber 1.83.01
#
DISCID=68070d09
DTITLE=Epidemic Scorn - The Beginning...
DYEAR=2005
DGENRE=Death Metal
TTITLE0=Intro
TTITLE1=Techno-Death
TTITLE2=Lies
TTITLE3=Brainfog
TTITLE4=Eternal Hate
TTITLE5=Living In Sorrow
TTITLE6=Templars Of Death
TTITLE7=The Siege
TTITLE8=The Beginning
EXTD=
EXTT0=
EXTT1=
EXTT2=
EXTT3=
EXTT4=
EXTT5=
EXTT6=
EXTT7=
EXTT8=
PLAYORDER=
